<svg width="200" height="150" viewBox="0 0 200 150" fill="none" xmlns="http://www.w3.org/2000/svg">
  <!-- 碗 -->
  <ellipse cx="100" cy="120" rx="60" ry="20" fill="#F5F5DC"/>
  <ellipse cx="100" cy="110" rx="50" ry="15" fill="#DEB887"/>
  
  <!-- 燕麦粥 -->
  <ellipse cx="100" cy="115" rx="45" ry="12" fill="#F4A460"/>
  
  <!-- 苹果块 -->
  <rect x="75" y="105" width="10" height="10" fill="#FF6B6B" rx="2"/>
  <rect x="90" y="108" width="8" height="8" fill="#FF6B6B" rx="2"/>
  <rect x="105" y="105" width="9" height="9" fill="#FF6B6B" rx="2"/>
  <rect x="115" y="108" width="7" height="7" fill="#FF6B6B" rx="2"/>
  
  <!-- 燕麦粒 -->
  <ellipse cx="85" cy="118" rx="2" ry="1" fill="#D2691E"/>
  <ellipse cx="95" cy="120" rx="1.5" ry="0.8" fill="#D2691E"/>
  <ellipse cx="105" cy="118" rx="2" ry="1" fill="#D2691E"/>
  <ellipse cx="115" cy="120" rx="1.5" ry="0.8" fill="#D2691E"/>
  
  <!-- 装饰苹果 -->
  <circle cx="40" cy="40" r="12" fill="#FF6B6B"/>
  <path d="M 40 28 L 42 25 L 38 25 Z" fill="#228B22"/>
  <circle cx="160" cy="40" r="12" fill="#FF6B6B"/>
  <path d="M 160 28 L 162 25 L 158 25 Z" fill="#228B22"/>
</svg> 