<svg width="200" height="150" viewBox="0 0 200 150" fill="none" xmlns="http://www.w3.org/2000/svg">
  <!-- 碗 -->
  <ellipse cx="100" cy="120" rx="60" ry="20" fill="#F5F5DC"/>
  <ellipse cx="100" cy="110" rx="50" ry="15" fill="#DEB887"/>
  
  <!-- 燕麦粥 -->
  <ellipse cx="100" cy="115" rx="45" ry="12" fill="#F4A460"/>
  
  <!-- 香蕉块 -->
  <rect x="75" y="105" width="10" height="10" fill="#FFD700" rx="2"/>
  <rect x="90" y="108" width="8" height="8" fill="#FFD700" rx="2"/>
  <rect x="105" y="105" width="9" height="9" fill="#FFD700" rx="2"/>
  <rect x="115" y="108" width="7" height="7" fill="#FFD700" rx="2"/>
  
  <!-- 香蕉纹理 -->
  <path d="M 77 107 L 83 107" stroke="#DAA520" stroke-width="1"/>
  <path d="M 92 110 L 96 110" stroke="#DAA520" stroke-width="1"/>
  <path d="M 107 107 L 113 107" stroke="#DAA520" stroke-width="1"/>
  <path d="M 117 110 L 121 110" stroke="#DAA520" stroke-width="1"/>
  
  <!-- 燕麦粒 -->
  <ellipse cx="85" cy="118" rx="2" ry="1" fill="#D2691E"/>
  <ellipse cx="95" cy="120" rx="1.5" ry="0.8" fill="#D2691E"/>
  <ellipse cx="105" cy="118" rx="2" ry="1" fill="#D2691E"/>
  <ellipse cx="115" cy="120" rx="1.5" ry="0.8" fill="#D2691E"/>
  
  <!-- 装饰香蕉 -->
  <path d="M 30 40 Q 35 35 40 40 Q 35 45 30 40" fill="#FFD700"/>
  <path d="M 170 40 Q 175 35 180 40 Q 175 45 170 40" fill="#FFD700"/>
</svg> 