<svg width="200" height="150" viewBox="0 0 200 150" fill="none" xmlns="http://www.w3.org/2000/svg">
  <!-- 盘子 -->
  <ellipse cx="100" cy="130" rx="70" ry="15" fill="#F5F5DC"/>
  <ellipse cx="100" cy="125" rx="60" ry="12" fill="#FFFFFF"/>
  
  <!-- 鸡肉泥 -->
  <ellipse cx="100" cy="125" rx="50" ry="10" fill="#F5DEB3"/>
  
  <!-- 西兰花 -->
  <circle cx="85" cy="115" r="6" fill="#228B22"/>
  <circle cx="95" cy="112" r="5" fill="#228B22"/>
  <circle cx="105" cy="115" r="6" fill="#228B22"/>
  <circle cx="115" cy="112" r="5" fill="#228B22"/>
  
  <!-- 西兰花细节 -->
  <circle cx="83" cy="113" r="1" fill="#32CD32"/>
  <circle cx="87" cy="113" r="1" fill="#32CD32"/>
  <circle cx="93" cy="110" r="1" fill="#32CD32"/>
  <circle cx="97" cy="110" r="1" fill="#32CD32"/>
  <circle cx="103" cy="113" r="1" fill="#32CD32"/>
  <circle cx="107" cy="113" r="1" fill="#32CD32"/>
  <circle cx="113" cy="110" r="1" fill="#32CD32"/>
  <circle cx="117" cy="110" r="1" fill="#32CD32"/>
  
  <!-- 鸡肉块 -->
  <rect x="75" y="120" width="8" height="8" fill="#DEB887" rx="1"/>
  <rect x="90" y="122" width="7" height="7" fill="#DEB887" rx="1"/>
  <rect x="105" y="120" width="8" height="8" fill="#DEB887" rx="1"/>
  
  <!-- 装饰 -->
  <ellipse cx="30" cy="40" rx="10" ry="15" fill="#228B22"/>
  <ellipse cx="170" cy="40" rx="10" ry="15" fill="#228B22"/>
</svg> 