<svg width="200" height="150" viewBox="0 0 200 150" fill="none" xmlns="http://www.w3.org/2000/svg">
  <!-- 碗 -->
  <ellipse cx="100" cy="120" rx="60" ry="20" fill="#F5F5DC"/>
  <ellipse cx="100" cy="110" rx="50" ry="15" fill="#DEB887"/>
  
  <!-- 粥的内容 -->
  <ellipse cx="100" cy="115" rx="45" ry="12" fill="#FFA500"/>
  
  <!-- 南瓜块 -->
  <rect x="75" y="105" width="8" height="8" fill="#FF8C00" rx="2"/>
  <rect x="90" y="100" width="10" height="10" fill="#FF8C00" rx="2"/>
  <rect x="105" y="108" width="9" height="7" fill="#FF8C00" rx="2"/>
  <rect x="115" y="102" width="7" height="9" fill="#FF8C00" rx="2"/>
  
  <!-- 小米粒 -->
  <circle cx="85" cy="118" r="1" fill="#F4A460"/>
  <circle cx="95" cy="120" r="1" fill="#F4A460"/>
  <circle cx="105" cy="118" r="1" fill="#F4A460"/>
  <circle cx="115" cy="120" r="1" fill="#F4A460"/>
  
  <!-- 蒸汽 -->
  <path d="M 90 80 Q 85 70 90 60" stroke="#E0E0E0" stroke-width="2" fill="none"/>
  <path d="M 100 75 Q 95 65 100 55" stroke="#E0E0E0" stroke-width="2" fill="none"/>
  <path d="M 110 80 Q 115 70 110 60" stroke="#E0E0E0" stroke-width="2" fill="none"/>
</svg> 