<svg width="200" height="150" viewBox="0 0 200 150" fill="none" xmlns="http://www.w3.org/2000/svg">
  <!-- 碗 -->
  <ellipse cx="100" cy="120" rx="60" ry="20" fill="#F5F5DC"/>
  <ellipse cx="100" cy="110" rx="50" ry="15" fill="#DEB887"/>
  
  <!-- 蒸蛋 -->
  <ellipse cx="100" cy="115" rx="45" ry="12" fill="#FFFACD"/>
  
  <!-- 南瓜块 -->
  <rect x="75" y="105" width="12" height="12" fill="#FF8C00" rx="2"/>
  <rect x="90" y="108" width="10" height="10" fill="#FF8C00" rx="2"/>
  <rect x="105" y="105" width="11" height="11" fill="#FF8C00" rx="2"/>
  <rect x="115" y="108" width="9" height="9" fill="#FF8C00" rx="2"/>
  
  <!-- 蛋花 -->
  <circle cx="85" cy="118" r="3" fill="#FFD700"/>
  <circle cx="100" cy="116" r="2.5" fill="#FFD700"/>
  <circle cx="115" cy="119" r="2" fill="#FFD700"/>
  
  <!-- 蒸汽 -->
  <path d="M 90 80 Q 85 70 90 60" stroke="#E0E0E0" stroke-width="2" fill="none"/>
  <path d="M 100 75 Q 95 65 100 55" stroke="#E0E0E0" stroke-width="2" fill="none"/>
  <path d="M 110 80 Q 115 70 110 60" stroke="#E0E0E0" stroke-width="2" fill="none"/>
  
  <!-- 装饰 -->
  <circle cx="40" cy="30" r="10" fill="#FF8C00"/>
  <circle cx="160" cy="30" r="10" fill="#FFD700"/>
</svg> 