<svg width="200" height="150" viewBox="0 0 200 150" fill="none" xmlns="http://www.w3.org/2000/svg">
  <!-- 碗 -->
  <ellipse cx="100" cy="120" rx="60" ry="20" fill="#F5F5DC"/>
  <ellipse cx="100" cy="110" rx="50" ry="15" fill="#DEB887"/>
  
  <!-- 鸡蛋羹 -->
  <ellipse cx="100" cy="115" rx="45" ry="12" fill="#FFFACD"/>
  
  <!-- 菠菜叶 -->
  <path d="M 80 110 Q 85 105 90 110 Q 85 115 80 110" fill="#228B22"/>
  <path d="M 95 108 Q 100 103 105 108 Q 100 113 95 108" fill="#228B22"/>
  <path d="M 110 110 Q 115 105 120 110 Q 115 115 110 110" fill="#228B22"/>
  
  <!-- 鸡蛋纹理 -->
  <circle cx="90" cy="118" r="3" fill="#FFD700"/>
  <circle cx="105" cy="116" r="2" fill="#FFD700"/>
  <circle cx="115" cy="119" r="2.5" fill="#FFD700"/>
  
  <!-- 装饰 -->
  <ellipse cx="50" cy="30" rx="8" ry="12" fill="#228B22"/>
  <ellipse cx="150" cy="30" rx="8" ry="12" fill="#228B22"/>
</svg> 