<svg width="200" height="150" viewBox="0 0 200 150" fill="none" xmlns="http://www.w3.org/2000/svg">
  <!-- 碗 -->
  <ellipse cx="100" cy="120" rx="60" ry="20" fill="#F5F5DC"/>
  <ellipse cx="100" cy="110" rx="50" ry="15" fill="#DEB887"/>
  
  <!-- 汤 -->
  <ellipse cx="100" cy="115" rx="45" ry="12" fill="#E6F3FF"/>
  
  <!-- 豆腐块 -->
  <rect x="75" y="105" width="12" height="12" fill="#FFFFFF" stroke="#CCCCCC" stroke-width="1" rx="1"/>
  <rect x="90" y="108" width="10" height="10" fill="#FFFFFF" stroke="#CCCCCC" stroke-width="1" rx="1"/>
  <rect x="105" y="105" width="11" height="11" fill="#FFFFFF" stroke="#CCCCCC" stroke-width="1" rx="1"/>
  <rect x="115" y="108" width="9" height="9" fill="#FFFFFF" stroke="#CCCCCC" stroke-width="1" rx="1"/>
  
  <!-- 青菜叶 -->
  <path d="M 80 110 Q 85 105 90 110 Q 85 115 80 110" fill="#228B22"/>
  <path d="M 95 108 Q 100 103 105 108 Q 100 113 95 108" fill="#228B22"/>
  <path d="M 110 110 Q 115 105 120 110 Q 115 115 110 110" fill="#228B22"/>
  
  <!-- 汤的波纹 -->
  <ellipse cx="100" cy="118" rx="35" ry="8" fill="#B0E0E6" opacity="0.3"/>
  
  <!-- 装饰 -->
  <ellipse cx="30" cy="40" rx="8" ry="12" fill="#228B22"/>
  <rect x="165" y="35" width="10" height="10" fill="#FFFFFF" stroke="#CCCCCC" stroke-width="1" rx="1"/>
</svg> 